<svg width="245" height="355" viewBox="0 0 245 355" fill="none" xmlns="http://www.w3.org/2000/svg">
<g id="Rectangle 166" filter="url(#filter0_dd_7_248)">
<path d="M40 100.095C40 90.2514 47.163 81.8713 56.8869 80.339L181.887 60.6421C194.024 58.7295 205 68.1112 205 80.3983V251.308C205 260.974 198.088 269.257 188.578 270.986L63.5777 293.713C51.3009 295.945 40 286.514 40 274.036V100.095Z" fill="url(#paint0_linear_7_248)"/>
<path d="M41 100.095C41 90.7436 47.8049 82.7825 57.0426 81.3268L182.043 61.6299C193.573 59.8129 204 68.7255 204 80.3983V251.308C204 260.491 197.433 268.359 188.399 270.002L63.3988 292.729C51.7358 294.85 41 285.89 41 274.036V100.095Z" stroke="url(#paint1_linear_7_248)" stroke-opacity="0.2" stroke-width="2"/>
</g>
<defs>
<filter id="filter0_dd_7_248" x="0" y="0.393799" width="245" height="353.648" filterUnits="userSpaceOnUse" color-interpolation-filters="sRGB">
<feFlood flood-opacity="0" result="BackgroundImageFix"/>
<feColorMatrix in="SourceAlpha" type="matrix" values="0 0 0 0 0 0 0 0 0 0 0 0 0 0 0 0 0 0 127 0" result="hardAlpha"/>
<feOffset dy="20"/>
<feGaussianBlur stdDeviation="20"/>
<feComposite in2="hardAlpha" operator="out"/>
<feColorMatrix type="matrix" values="0 0 0 0 0.854901 0 0 0 0 0.584182 0 0 0 0 0.431903 0 0 0 1 0"/>
<feBlend mode="normal" in2="BackgroundImageFix" result="effect1_dropShadow_7_248"/>
<feColorMatrix in="SourceAlpha" type="matrix" values="0 0 0 0 0 0 0 0 0 0 0 0 0 0 0 0 0 0 127 0" result="hardAlpha"/>
<feOffset dy="-20"/>
<feGaussianBlur stdDeviation="20"/>
<feComposite in2="hardAlpha" operator="out"/>
<feColorMatrix type="matrix" values="0 0 0 0 0.959067 0 0 0 0 0.795826 0 0 0 0 0.744276 0 0 0 0.5 0"/>
<feBlend mode="normal" in2="effect1_dropShadow_7_248" result="effect2_dropShadow_7_248"/>
<feBlend mode="normal" in="SourceGraphic" in2="effect2_dropShadow_7_248" result="shape"/>
</filter>
<linearGradient id="paint0_linear_7_248" x1="99.5" y1="121" x2="136" y2="262.5" gradientUnits="userSpaceOnUse">
<stop stop-color="#D5DCEA"/>
<stop offset="1" stop-color="#FAFAFA"/>
</linearGradient>
<linearGradient id="paint1_linear_7_248" x1="58.5" y1="66" x2="189" y2="153.5" gradientUnits="userSpaceOnUse">
<stop stop-color="white"/>
<stop offset="0.844522" stop-color="#A9D6FF"/>
<stop offset="1" stop-color="#CECECE"/>
</linearGradient>
</defs>
</svg>
